:FULLY-SPECIFIED
:FORCE-ALL-JOINTS-BE-3DOF
:DEGREES
485
root 10.8487 17.2319 32.3002 4.24446 5.37974 4.84139
lfemur 9.60205 2.03781 -29.3872
ltibia 9.53211 0 0
lfoot -19.1175 2.85866 0
ltoes -0.88315 0 0
rfemur -43.5478 6.59673 11.3018
rtibia 39.0788 0 0
rfoot -28.9753 -13.1674 0
rtoes -20.9542 0 0
lowerback -6.51216 -5.70325 -5.38036
upperback 1.17972 -7.21676 1.50234
thorax 5.62865 -3.75405 3.81157
lowerneck -24.0892 -2.13419 -8.51905
upperneck 24.8676 -2.58439 9.57462
head 12.4461 -0.660078 4.66098
lclavicle 2.16456e-14 8.90199e-15 0
lhumerus -8.20412 -25.6291 85.4313
lradius 32.7632 0 0
lwrist 6.89281 0 0
lhand -14.6941 -25.5173 0
lfingers 7.12502 0 0
lthumb 11.4602 4.15614 0
rclavicle 2.16456e-14 8.90199e-15 0
rhumerus -47.5394 8.22436 -85.1012
rradius 37.5493 0 0
rwrist -19.1128 0 0
rhand -35.6512 -16.3284 0
rfingers 7.12502 0 0
rthumb -8.77227 -46.1039 0
486
root 10.841 17.2186 32.4501 4.28569 5.40186 4.93984
lfemur 10.613 1.9803 -29.39
ltibia 8.61059 0 0
lfoot -19.0408 2.88074 0
ltoes -1.03013 0 0
rfemur -43.8711 7.02759 10.9998
rtibia 38.0434 0 0
rfoot -29.0907 -13.2884 0
rtoes -21.391 0 0
lowerback -6.62412 -5.74253 -5.47061
upperback 1.2353 -7.25474 1.47168
thorax 5.76153 -3.77827 3.81209
lowerneck -24.1242 -2.13767 -8.52579
upperneck 24.8164 -2.60131 9.64243
head 12.4373 -0.658517 4.68436
lclavicle 2.24582e-14 8.27282e-15 0
lhumerus -8.20045 -25.892 85.446
lradius 33.0921 0 0
lwrist 7.05419 0 0
lhand -14.6703 -25.5695 0
lfingers 7.12502 0 0
lthumb 11.4831 4.10255 0
rclavicle 2.24582e-14 8.27282e-15 0
rhumerus -47.6187 8.03316 -85.0169
rradius 37.3466 0 0
rwrist -19.0503 0 0
rhand -35.2948 -16.556 0
rfingers 7.12502 0 0
rthumb -8.42824 -46.343 0
487
root 10.8324 17.2049 32.5926 4.33419 5.41203 5.03238
lfemur 11.5786 1.92428 -29.3851
ltibia 7.70143 0 0
lfoot -18.9399 2.91043 0
ltoes -1.17167 0 0
rfemur -44.1351 7.45899 10.7038
rtibia 37 0 0
rfoot -29.1326 -13.3931 0
rtoes -21.8325 0 0
lowerback -6.73735 -5.76945 -5.55705
upperback 1.28399 -7.2764 1.43932
thorax 5.88687 -3.79414 3.80967
lowerneck -24.1488 -2.14676 -8.54284
upperneck 24.76 -2.62598 9.71831
head 12.4261 -0.660677 4.71117
lclavicle 2.32875e-14 7.62137e-15 0
lhumerus -8.25349 -26.125 85.4661
lradius 33.4078 0 0
lwrist 7.19956 0 0
lhand -14.6391 -25.6193 0
lfingers 7.12502 0 0
lthumb 11.5132 4.05077 0
rclavicle 2.32875e-14 7.62137e-15 0
rhumerus -47.6953 7.83873 -84.9388
rradius 37.1249 0 0
rwrist -18.9761 0 0
rhand -34.9148 -16.8067 0
rfingers 7.12502 0 0
rthumb -8.06147 -46.606 0
488
root 10.8229 17.1907 32.7269 4.39022 5.40954 5.11843
lfemur 12.4937 1.87001 -29.372
ltibia 6.80785 0 0
lfoot -18.8137 2.94809 0
ltoes -1.30707 0 0
rfemur -44.3358 7.88978 10.4149
rtibia 35.9511 0 0
rfoot -29.0968 -13.4804 0
rtoes -22.2777 0 0
lowerback -6.85159 -5.78325 -5.63922
upperback 1.32526 -7.28075 1.40525
thorax 6.00389 -3.80116 3.80418
lowerneck -24.1623 -2.16174 -8.57073
upperneck 24.6983 -2.65878 9.8025
head 12.4126 -0.666763 4.74155
lclavicle 2.41322e-14 6.94817e-15 0
lhumerus -8.36632 -26.3256 85.4918
lradius 33.7085 0 0
lwrist 7.32759 0 0
lhand -14.6003 -25.6666 0
lfingers 7.12502 0 0
lthumb 11.5506 4.00105 0
rclavicle 2.41322e-14 6.94817e-15 0
rhumerus -47.7687 7.64142 -84.8674
rradius 36.8837 0 0
rwrist -18.89 0 0
rhand -34.5109 -17.0812 0
rfingers 7.12502 0 0
rthumb -7.67166 -46.8934 0
489
root 10.8126 17.1761 32.8522 4.45407 5.39367 5.19737
lfemur 13.3529 1.81772 -29.3505
ltibia 5.9331 0 0
lfoot -18.661 2.99405 0
ltoes -1.43564 0 0
rfemur -44.4689 8.31877 10.1345
rtibia 34.8991 0 0
rfoot -28.979 -13.5491 0
rtoes -22.7256 0 0
lowerback -6.9666 -5.78315 -5.71667
upperback 1.35859 -7.26679 1.36947
thorax 6.11181 -3.79881 3.79543
lowerneck -24.1641 -2.1829 -8.61
upperneck 24.6313 -2.70009 9.89527
head 12.3965 -0.676982 4.7756
lclavicle 2.49909e-14 6.25377e-15 0
lhumerus -8.54202 -26.4915 85.5233
lradius 33.9926 0 0
lwrist 7.43697 0 0
lhand -14.5534 -25.7111 0
lfingers 7.12502 0 0
lthumb 11.5958 3.95364 0
rclavicle 2.49909e-14 6.25377e-15 0
rhumerus -47.8387 7.44159 -84.8032
rradius 36.6225 0 0
rwrist -18.7913 0 0
rhand -34.083 -17.3802 0
rfingers 7.12502 0 0
rthumb -7.25856 -47.2059 0
490
root 10.8014 17.1609 32.9677 4.52603 5.36373 5.26864
lfemur 14.151 1.76765 -29.3199
ltibia 5.08039 0 0
lfoot -18.4808 3.04868 0
ltoes -1.55666 0 0
rfemur -44.5304 8.7448 9.86357
rtibia 33.8465 0 0
rfoot -28.7748 -13.5979 0
rtoes -23.1752 0 0
lowerback -7.08214 -5.76836 -5.78894
upperback 1.38344 -7.23355 1.33196
thorax 6.20985 -3.78655 3.78329
lowerneck -24.1536 -2.21055 -8.66119
upperneck 24.5587 -2.75027 9.99686
head 12.3778 -0.69154 4.81345
lclavicle 2.58622e-14 5.5387e-15 0
lhumerus -8.78367 -26.6204 85.5608
lradius 34.2586 0 0
lwrist 7.52639 0 0
lhand -14.4982 -25.7525 0
lfingers 7.12502 0 0
lthumb 11.649 3.90877 0
rclavicle 2.58622e-14 5.5387e-15 0
rhumerus -47.9048 7.23959 -84.7468
rradius 36.3408 0 0
rwrist -18.6798 0 0
rhand -33.6306 -17.7042 0
rfingers 7.12502 0 0
rthumb -6.82188 -47.5441 0
